<svg width="224" height="86" viewBox="0 0 224 86" fill="none" xmlns="http://www.w3.org/2000/svg">
<path d="M12.8515 5.84172V7.24157C14.0648 7.26232 15.0292 7.46452 15.7449 7.84818C16.4656 8.22665 16.9815 8.72956 17.2925 9.35691C17.6088 9.98425 17.7669 10.6868 17.7669 11.4645C17.7669 11.9933 17.6841 12.5118 17.5181 13.0199C17.3522 13.5228 17.08 13.979 16.7014 14.3886C16.3281 14.7982 15.8252 15.1299 15.1926 15.3841C14.5651 15.633 13.7848 15.7652 12.8515 15.7806V17.5305H11.3349V15.7806C10.386 15.7652 9.59269 15.6277 8.95494 15.3686C8.32236 15.1092 7.81941 14.7749 7.44607 14.3653C7.07794 13.9505 6.81349 13.4942 6.65276 12.9965C6.49721 12.4936 6.41943 11.9881 6.41943 11.48C6.41943 10.9097 6.50498 10.3731 6.67609 9.87018C6.85239 9.36727 7.13238 8.9214 7.51607 8.53256C7.89978 8.1437 8.40532 7.83522 9.03272 7.6071C9.6601 7.37896 10.4275 7.25713 11.3349 7.24157V5.84172H12.8515ZM11.3349 8.54811C10.5156 8.57402 9.85973 8.70883 9.36715 8.95251C8.87975 9.19619 8.52717 9.53319 8.30939 9.96352C8.0968 10.3887 7.99051 10.889 7.99051 11.4645C7.99051 12.0711 8.10977 12.5973 8.34828 13.0432C8.58679 13.4891 8.95234 13.8364 9.44492 14.0853C9.9375 14.3342 10.5675 14.4716 11.3349 14.4975V8.54811ZM12.8515 8.54811V14.4975C13.6397 14.4716 14.2774 14.3316 14.7648 14.0775C15.2574 13.8235 15.6177 13.4735 15.8459 13.0276C16.0792 12.5766 16.1959 12.0503 16.1959 11.4489C16.1959 10.8734 16.087 10.3731 15.8692 9.94797C15.6567 9.52282 15.3067 9.191 14.8193 8.95251C14.3318 8.70883 13.676 8.57402 12.8515 8.54811ZM52.3712 11.6744C52.3712 12.5506 52.2597 13.3491 52.0368 14.0698C51.8138 14.7852 51.4819 15.4022 51.0413 15.9207C50.6057 16.434 50.0586 16.8305 49.4002 17.1106C48.7468 17.3905 47.982 17.5305 47.1058 17.5305C46.2139 17.5305 45.4361 17.3905 44.7725 17.1106C44.1139 16.8305 43.5669 16.4313 43.1314 15.9128C42.6959 15.3945 42.3692 14.7749 42.1514 14.0542C41.9388 13.3335 41.8325 12.5351 41.8325 11.6589C41.8325 10.4923 42.0244 9.47097 42.408 8.59477C42.7917 7.71856 43.375 7.03938 44.158 6.5572C44.9461 6.06984 45.9365 5.82617 47.1291 5.82617C48.2801 5.82617 49.2445 6.06725 50.0223 6.54943C50.8002 7.0316 51.3861 7.71078 51.7801 8.58698C52.1741 9.45801 52.3712 10.4872 52.3712 11.6744ZM43.5047 11.6744C43.5047 12.5973 43.6317 13.3957 43.8859 14.0698C44.1451 14.7386 44.5391 15.2571 45.0681 15.6251C45.6021 15.9881 46.2812 16.1696 47.1058 16.1696C47.9406 16.1696 48.6223 15.9881 49.1513 15.6251C49.6801 15.2571 50.069 14.7386 50.3178 14.0698C50.5667 13.3957 50.6913 12.5973 50.6913 11.6744C50.6913 10.2746 50.406 9.18063 49.8356 8.39257C49.2654 7.59932 48.3631 7.20269 47.1291 7.20269C46.2995 7.20269 45.6176 7.38414 45.0835 7.74708C44.5495 8.10482 44.1529 8.6181 43.8935 9.28691C43.6343 9.95056 43.5047 10.7464 43.5047 11.6744ZM80.2866 6.00503C81.754 6.00503 82.8247 6.29796 83.4988 6.88383C84.1781 7.4697 84.5176 8.30183 84.5176 9.38025C84.5176 9.86759 84.4399 10.3316 84.2843 10.7723C84.1288 11.2078 83.8747 11.5941 83.5221 11.9311C83.1747 12.2629 82.7158 12.5273 82.1454 12.7243C81.5752 12.9162 80.8752 13.0121 80.0455 13.0121H78.7467V17.375H77.1523V6.00503H80.2866ZM80.1622 7.34268H78.7467V11.6667H79.8744C80.5329 11.6667 81.0852 11.5941 81.531 11.4489C81.977 11.2986 82.314 11.0601 82.5422 10.7334C82.7703 10.4068 82.8844 9.97647 82.8844 9.44245C82.8844 8.73735 82.664 8.2111 82.2232 7.86373C81.7825 7.51635 81.0954 7.34268 80.1622 7.34268ZM114.098 17.375L110.551 7.59932H110.489C110.504 7.81189 110.52 8.08667 110.535 8.42367C110.556 8.75549 110.572 9.11842 110.582 9.51244C110.598 9.9013 110.605 10.285 110.605 10.6634V17.375H109.143V6.00503H111.437L114.805 15.2674H114.86L118.313 6.00503H120.592V17.375H119.052V10.5701C119.052 10.2279 119.057 9.87277 119.067 9.50467C119.078 9.13138 119.091 8.77882 119.106 8.447C119.127 8.11001 119.145 7.83263 119.161 7.61487H119.091L115.459 17.375H114.098ZM154.434 6.00503L150.778 14.1942C150.456 14.92 150.128 15.5319 149.79 16.0295C149.453 16.5273 149.045 16.9032 148.562 17.1572C148.085 17.4061 147.473 17.5305 146.726 17.5305C146.431 17.5305 146.146 17.5072 145.87 17.4605C145.595 17.419 145.348 17.3645 145.125 17.2972V15.7963C145.348 15.8947 145.585 15.9699 145.84 16.0217C146.099 16.0736 146.363 16.0995 146.634 16.0995C147.016 16.0995 147.343 16.04 147.612 15.9207C147.882 15.7963 148.113 15.6096 148.305 15.3607C148.502 15.1066 148.685 14.7826 148.858 14.3886L144.587 6.00503H146.306L149.262 12.0011C149.308 12.084 149.357 12.1851 149.409 12.3044C149.462 12.4236 149.514 12.5455 149.564 12.6699C149.622 12.7943 149.669 12.9136 149.705 13.0276H149.767C149.803 12.9343 149.845 12.8254 149.892 12.701C149.938 12.5766 149.984 12.4521 150.032 12.3277C150.083 12.2033 150.131 12.0944 150.171 12.0011L152.762 6.00503H154.434ZM186.572 17.375H184.985V7.38155H181.524C181.452 7.93631 181.374 8.52478 181.291 9.14693C181.213 9.7639 181.13 10.3809 181.042 10.9978C180.96 11.6148 180.874 12.2007 180.786 12.7554C180.698 13.305 180.612 13.7924 180.53 14.2175C180.395 14.9226 180.224 15.5241 180.016 16.0217C179.808 16.5143 179.532 16.8928 179.184 17.1572C178.837 17.4164 178.381 17.5461 177.814 17.5461C177.628 17.5461 177.441 17.5279 177.256 17.4917C177.073 17.4605 176.912 17.419 176.773 17.3671V16.0374C176.898 16.0892 177.03 16.1332 177.17 16.1696C177.315 16.2007 177.47 16.2162 177.636 16.2162C177.932 16.2162 178.168 16.1021 178.344 15.874C178.52 15.6406 178.663 15.3322 178.772 14.9485C178.886 14.5598 178.987 14.132 179.074 13.6654C179.137 13.3335 179.21 12.9058 179.293 12.3822C179.381 11.8585 179.474 11.2597 179.572 10.5857C179.671 9.91166 179.772 9.18582 179.876 8.40812C179.985 7.63042 180.091 6.8294 180.195 6.00503H186.572V17.375ZM219.022 17.375L217.762 13.992H213.306L212.061 17.375H210.404L214.744 5.95837H216.378L220.694 17.375H219.022ZM217.319 12.6077L216.121 9.25581C216.085 9.14174 216.029 8.97066 215.95 8.74253C215.878 8.5144 215.803 8.2785 215.724 8.03483C215.652 7.79114 215.593 7.58894 215.546 7.42822C215.494 7.64079 215.435 7.86632 215.367 8.10482C215.299 8.33813 215.232 8.55847 215.164 8.76586C215.102 8.96806 215.051 9.13138 215.009 9.25581L213.796 12.6077H217.319Z" fill="#464646" fill-opacity="0.6"/>
<path d="M18.6232 28.1553C23.8649 28.1553 27.7868 29.296 30.3887 31.5772C33.0095 33.8584 34.32 37.1012 34.32 41.3054C34.32 43.1907 34.0466 45.0007 33.4998 46.7351C32.9719 48.4698 32.0951 50.0157 30.8696 51.3731C29.6628 52.7306 28.0508 53.8052 26.0332 54.597C24.0346 55.3888 21.5647 55.7847 18.6232 55.7847H15.484V69.5005H4.3125V28.1553H18.6232ZM18.3688 37.1766H15.484V46.6787H17.69C18.6516 46.6787 19.5473 46.5184 20.3768 46.1978C21.2064 45.8586 21.8663 45.3212 22.3566 44.586C22.8656 43.8317 23.1202 42.8325 23.1202 41.5883C23.1202 40.2874 22.7337 39.2317 21.9606 38.421C21.1876 37.5913 19.9904 37.1766 18.3688 37.1766ZM80.7583 48.7714C80.7583 51.9575 80.3718 54.8609 79.5987 57.4815C78.8445 60.0833 77.6567 62.3269 76.0352 64.2122C74.4137 66.0974 72.3302 67.5491 69.7848 68.5673C67.2394 69.5665 64.1943 70.0661 60.6496 70.0661C57.1804 70.0661 54.1729 69.5665 51.6275 68.5673C49.101 67.5491 47.0175 66.1068 45.3772 64.2405C43.7368 62.3551 42.5207 60.1021 41.7288 57.4815C40.9369 54.8609 40.541 51.9387 40.541 48.7147C40.541 44.4163 41.248 40.6834 42.6621 37.516C44.0951 34.3297 46.3012 31.8694 49.2801 30.1349C52.2592 28.3816 56.0678 27.5049 60.7062 27.5049C65.4199 27.5049 69.2474 28.3816 72.1889 30.1349C75.149 31.8882 77.3173 34.3581 78.6937 37.5443C80.0702 40.7304 80.7583 44.4727 80.7583 48.7714ZM52.3064 48.7714C52.3064 51.2599 52.5892 53.3998 53.1548 55.1909C53.7204 56.982 54.616 58.3582 55.8417 59.3198C57.0671 60.2812 58.6698 60.762 60.6496 60.762C62.7048 60.762 64.3358 60.2812 65.5424 59.3198C66.7681 58.3582 67.6447 56.982 68.1727 55.1909C68.7195 53.3998 68.9929 51.2599 68.9929 48.7714C68.9929 45.0384 68.3706 42.0879 67.1263 39.9197C65.8819 37.7516 63.7418 36.6675 60.7062 36.6675C58.6887 36.6675 57.0577 37.1578 55.8134 38.138C54.5878 39.1184 53.6922 40.5137 53.1266 42.3236C52.5798 44.1335 52.3064 46.2827 52.3064 48.7714ZM107.795 36.7241C106.475 36.7241 105.297 37.0069 104.26 37.5725C103.223 38.1192 102.337 38.9205 101.601 39.9763C100.866 41.032 100.3 42.3236 99.9043 43.8507C99.5272 45.3589 99.3387 47.0745 99.3387 48.9975C99.3387 51.5993 99.6685 53.7863 100.329 55.5585C100.988 57.3308 101.988 58.6693 103.326 59.5742C104.684 60.4792 106.381 60.9316 108.417 60.9316C110.265 60.9316 112.037 60.6771 113.734 60.1682C115.45 59.6591 117.175 59.0463 118.91 58.33V67.7754C117.081 68.5861 115.205 69.1705 113.282 69.5287C111.377 69.887 109.351 70.0661 107.201 70.0661C102.714 70.0661 99.0369 69.1799 96.1711 67.4078C93.3239 65.6167 91.2216 63.1376 89.8641 59.9702C88.5254 56.8029 87.8561 53.1264 87.8561 48.9411C87.8561 45.8114 88.2897 42.9458 89.157 40.344C90.0432 37.7422 91.3347 35.4892 93.0317 33.585C94.7287 31.662 96.8215 30.1821 99.3103 29.1451C101.818 28.0893 104.684 27.5615 107.908 27.5615C109.907 27.5615 112.009 27.7971 114.215 28.2684C116.44 28.7209 118.608 29.4563 120.72 30.4743L117.298 39.2693C115.789 38.5529 114.262 37.9495 112.716 37.4594C111.17 36.9693 109.53 36.7241 107.795 36.7241Z" fill="#464646" fill-opacity="0.6"/>
<path d="M132.721 65.8808C136.775 62.4058 158.062 41.266 167.474 31.8545M167.474 31.8545V68.7767M167.474 31.8545H129.825" stroke="#464646" stroke-opacity="0.6" stroke-width="8.87562"/>
<path d="M209.574 69.5003L207.538 61.7515H194.105L192.011 69.5003H179.737L193.227 27.9854H208.132L221.793 69.5003H209.574ZM205.219 52.5889L203.438 45.8017C203.249 45.0664 202.976 44.02 202.618 42.6626C202.259 41.2863 201.901 39.8724 201.542 38.4207C201.203 36.9501 200.94 35.7435 200.75 34.8009C200.581 35.7435 200.336 36.9124 200.016 38.3075C199.713 39.6839 199.393 41.0507 199.054 42.4082C198.733 43.7656 198.45 44.8967 198.206 45.8017L196.423 52.5889H205.219Z" fill="#464646" fill-opacity="0.6"/>
</svg>
