<svg width="38" height="39" viewBox="0 0 38 39" fill="none" xmlns="http://www.w3.org/2000/svg">
<path fill-rule="evenodd" clip-rule="evenodd" d="M38 19.5C38 29.9934 29.4934 38.5 19 38.5C8.50659 38.5 0 29.9934 0 19.5C0 9.00659 8.50659 0.5 19 0.5C29.4934 0.5 38 9.00659 38 19.5ZM12.7233 17.7595C10.82 18.5905 8.86435 19.4444 7.07612 20.4294L7.07599 20.4295C6.14223 21.1132 7.38339 21.5967 8.54767 22.0503C8.73277 22.1224 8.91593 22.1938 9.08809 22.2651C9.23135 22.3091 9.37705 22.3555 9.52469 22.4026C10.8196 22.8151 12.2635 23.2751 13.5206 22.5831C15.5857 21.3969 17.5346 20.0253 19.482 18.6549C20.12 18.2059 20.7579 17.757 21.3996 17.3148C21.4297 17.2955 21.4636 17.2735 21.5007 17.2495C22.0474 16.8951 23.2769 16.0981 22.8221 17.1963C21.7467 18.3724 20.5947 19.4135 19.4366 20.4603C18.656 21.1657 17.8726 21.8738 17.1079 22.6274C16.4418 23.1686 15.7502 24.257 16.496 25.0148C18.2138 26.2174 19.9584 27.3908 21.702 28.5635C22.2695 28.9452 22.8368 29.3267 23.4031 29.7092C24.3628 30.4754 25.8626 29.8557 26.0736 28.6584C26.1674 28.1076 26.2616 27.5569 26.3558 27.0061C26.8764 23.9624 27.3972 20.9176 27.8572 17.864C27.9197 17.385 27.9906 16.906 28.0615 16.4268C28.2334 15.2654 28.4055 14.1025 28.4592 12.9348C28.3207 11.7695 26.9077 12.0257 26.1214 12.2877C22.0798 13.8256 18.0785 15.4775 14.0931 17.1585C13.6417 17.3586 13.184 17.5584 12.7233 17.7595Z" fill="#464646"/>
</svg>
