<svg width="38" height="39" viewBox="0 0 38 39" fill="none" xmlns="http://www.w3.org/2000/svg">
<path d="M18.9998 1.26001C8.92597 1.26001 0.759766 9.42621 0.759766 19.5C0.759766 29.5738 8.92597 37.74 18.9998 37.74C29.0736 37.74 37.2398 29.5738 37.2398 19.5C37.2398 9.42621 29.0736 1.26001 18.9998 1.26001ZM26.0146 21.8389C26.0146 21.8389 27.6277 23.4311 28.0248 24.1702C28.0362 24.1854 28.0419 24.2006 28.0457 24.2082C28.2072 24.4799 28.2452 24.6908 28.1654 24.8485C28.0324 25.1107 27.5764 25.2399 27.4206 25.2513H24.5706C24.373 25.2513 23.9588 25.2 23.4572 24.8542C23.0715 24.5844 22.6915 24.1417 22.321 23.7104C21.7681 23.0682 21.2893 22.5134 20.8067 22.5134C20.7454 22.5133 20.6844 22.5229 20.6262 22.5419C20.2614 22.6597 19.794 23.1803 19.794 24.5673C19.794 25.0005 19.452 25.2494 19.2107 25.2494H17.9054C17.4608 25.2494 15.1447 25.0936 13.0927 22.9295C10.5809 20.279 8.31987 14.9628 8.30087 14.9134C8.15837 14.5695 8.45287 14.3852 8.77397 14.3852H11.6525C12.0363 14.3852 12.1617 14.6189 12.2491 14.826C12.3517 15.0673 12.7279 16.0268 13.3454 17.106C14.3467 18.8654 14.9604 19.5798 15.4525 19.5798C15.5447 19.5787 15.6354 19.5553 15.7166 19.5114C16.3588 19.1542 16.2391 16.8647 16.2106 16.3897C16.2106 16.3004 16.2087 15.3656 15.88 14.9172C15.6444 14.5923 15.2435 14.4688 15.0003 14.4232C15.0987 14.2874 15.2284 14.1772 15.3784 14.1021C15.8192 13.8817 16.6134 13.8494 17.4019 13.8494H17.8408C18.6958 13.8608 18.9162 13.9159 19.2259 13.9938C19.8529 14.1439 19.8662 14.5486 19.8111 15.9337C19.794 16.327 19.7769 16.7716 19.7769 17.296C19.7769 17.41 19.7712 17.5316 19.7712 17.6608C19.7522 18.3657 19.7294 19.1656 20.2272 19.4943C20.2921 19.535 20.3671 19.5567 20.4438 19.557C20.6167 19.557 21.1373 19.557 22.5471 17.1383C22.9819 16.3598 23.3597 15.5508 23.6776 14.7177C23.7061 14.6683 23.7897 14.5163 23.8885 14.4574C23.9614 14.4202 24.0422 14.4013 24.1241 14.4023H27.508C27.8766 14.4023 28.1293 14.4574 28.1768 14.5999C28.2604 14.826 28.1616 15.5157 26.6169 17.6076L25.9272 18.5177C24.5269 20.3531 24.5269 20.4462 26.0146 21.8389Z" fill="#464646"/>
</svg>
