<svg width="201" height="77" viewBox="0 0 201 77" fill="none" xmlns="http://www.w3.org/2000/svg">
<path d="M12.0343 5.2656V6.52735C13.128 6.54605 13.9972 6.7283 14.6422 7.07411C15.2918 7.41525 15.7569 7.86854 16.0372 8.434C16.3223 8.99945 16.4648 9.63267 16.4648 10.3336C16.4648 10.8103 16.3902 11.2776 16.2406 11.7356C16.091 12.1889 15.8456 12.6001 15.5045 12.9693C15.168 13.3385 14.7147 13.6375 14.1444 13.8665C13.5789 14.0909 12.8756 14.21 12.0343 14.224V15.8012H10.6673V14.224C9.81208 14.21 9.09702 14.0862 8.52219 13.8526C7.95201 13.6188 7.49868 13.3175 7.16217 12.9483C6.83035 12.5744 6.592 12.1632 6.44712 11.7145C6.30692 11.2613 6.23682 10.8056 6.23682 10.3477C6.23682 9.83361 6.31393 9.34994 6.46815 8.89664C6.62706 8.44334 6.87943 8.04145 7.22527 7.69097C7.57112 7.34048 8.02679 7.06243 8.59229 6.85681C9.15778 6.65119 9.84946 6.54138 10.6673 6.52735V5.2656H12.0343ZM10.6673 7.70499C9.92891 7.72835 9.33771 7.84985 8.89372 8.0695C8.45441 8.28913 8.13662 8.59289 7.94032 8.98076C7.7487 9.36396 7.6529 9.81492 7.6529 10.3336C7.6529 10.8804 7.7604 11.3547 7.97537 11.7566C8.19035 12.1585 8.51984 12.4716 8.96382 12.6959C9.40781 12.9202 9.97565 13.0441 10.6673 13.0674V7.70499ZM12.0343 7.70499V13.0674C12.7447 13.0441 13.3196 12.9179 13.7589 12.6889C14.2029 12.4599 14.5276 12.1445 14.7333 11.7426C14.9436 11.336 15.0488 10.8617 15.0488 10.3196C15.0488 9.8009 14.9507 9.34994 14.7544 8.96675C14.5628 8.58355 14.2473 8.28446 13.808 8.0695C13.3686 7.84985 12.7774 7.72835 12.0343 7.70499ZM47.6552 10.5229C47.6552 11.3127 47.5547 12.0323 47.3538 12.6819C47.1528 13.3268 46.8537 13.8829 46.4565 14.3502C46.0639 14.8129 45.5708 15.1703 44.9773 15.4227C44.3884 15.675 43.699 15.8012 42.9092 15.8012C42.1054 15.8012 41.4043 15.675 40.8062 15.4227C40.2126 15.1703 39.7195 14.8105 39.327 14.3432C38.9344 13.8759 38.6399 13.3175 38.4436 12.6679C38.252 12.0183 38.1562 11.2986 38.1562 10.5089C38.1562 9.45742 38.3292 8.53681 38.6749 7.74705C39.0208 6.95728 39.5465 6.3451 40.2523 5.9105C40.9627 5.47122 41.8553 5.25159 42.9302 5.25159C43.9678 5.25159 44.837 5.46888 45.538 5.90349C46.2392 6.3381 46.7673 6.95027 47.1224 7.74003C47.4776 8.52513 47.6552 9.45275 47.6552 10.5229ZM39.6635 10.5229C39.6635 11.3547 39.7779 12.0744 40.007 12.6819C40.2406 13.2847 40.5958 13.7521 41.0726 14.0838C41.5539 14.411 42.1661 14.5746 42.9092 14.5746C43.6617 14.5746 44.2762 14.411 44.753 14.0838C45.2296 13.7521 45.5802 13.2847 45.8044 12.6819C46.0288 12.0744 46.141 11.3547 46.141 10.5229C46.141 9.26115 45.8839 8.27512 45.3698 7.5648C44.8558 6.84981 44.0425 6.4923 42.9302 6.4923C42.1825 6.4923 41.5679 6.65586 41.0865 6.98299C40.6052 7.30544 40.2477 7.76808 40.0139 8.37091C39.7803 8.96908 39.6635 9.68641 39.6635 10.5229ZM72.8166 5.4128C74.1393 5.4128 75.1043 5.67684 75.7119 6.2049C76.3242 6.73298 76.6302 7.48301 76.6302 8.45503C76.6302 8.8943 76.5602 9.31255 76.42 9.70977C76.2798 10.1023 76.0507 10.4505 75.7329 10.7542C75.4198 11.0533 75.0062 11.2916 74.4921 11.4692C73.9781 11.6421 73.3472 11.7286 72.5993 11.7286H71.4287V15.661H69.9915V5.4128H72.8166ZM72.7045 6.61848H71.4287V10.5159H72.4451C73.0386 10.5159 73.5364 10.4505 73.9383 10.3196C74.3403 10.1841 74.644 9.96913 74.8497 9.67473C75.0553 9.38031 75.1581 8.99244 75.1581 8.5111C75.1581 7.87556 74.9595 7.40123 74.5622 7.08813C74.165 6.77503 73.5457 6.61848 72.7045 6.61848ZM103.292 15.661L100.095 6.84981H100.039C100.053 7.04141 100.067 7.28907 100.081 7.59283C100.1 7.89192 100.114 8.21904 100.123 8.57419C100.137 8.92468 100.144 9.27049 100.144 9.61164V15.661H98.8264V5.4128H100.894L103.93 13.7614H103.979L107.092 5.4128H109.146V15.661H107.757V9.52751C107.757 9.21908 107.762 8.89897 107.772 8.56718C107.781 8.23072 107.793 7.91294 107.807 7.61386C107.825 7.31011 107.842 7.0601 107.856 6.86382H107.793L104.519 15.661H103.292ZM139.649 5.4128L136.354 12.794C136.064 13.4483 135.768 13.9998 135.463 14.4483C135.159 14.897 134.791 15.2358 134.357 15.4647C133.926 15.6891 133.375 15.8012 132.702 15.8012C132.435 15.8012 132.178 15.7802 131.93 15.7382C131.682 15.7007 131.459 15.6516 131.258 15.591V14.2381C131.459 14.3268 131.673 14.3946 131.903 14.4413C132.137 14.488 132.374 14.5114 132.618 14.5114C132.963 14.5114 133.258 14.4577 133.5 14.3502C133.743 14.2381 133.952 14.0699 134.124 13.8455C134.302 13.6165 134.468 13.3244 134.623 12.9693L130.774 5.4128H132.323L134.987 10.8173C135.029 10.8921 135.073 10.9832 135.12 11.0907C135.167 11.1982 135.214 11.308 135.26 11.4201C135.312 11.5323 135.354 11.6398 135.386 11.7426H135.443C135.475 11.6585 135.513 11.5603 135.555 11.4482C135.597 11.336 135.638 11.2239 135.681 11.1117C135.727 10.9996 135.77 10.9014 135.807 10.8173L138.142 5.4128H139.649ZM168.617 15.661H167.186V6.65352H164.067C164.002 7.15355 163.931 7.68396 163.857 8.24473C163.786 8.80084 163.712 9.35695 163.632 9.91305C163.558 10.4692 163.481 10.9972 163.401 11.4973C163.322 11.9926 163.245 12.4319 163.17 12.8151C163.049 13.4506 162.895 13.9927 162.707 14.4413C162.52 14.8853 162.271 15.2264 161.958 15.4647C161.644 15.6984 161.233 15.8153 160.723 15.8153C160.555 15.8153 160.386 15.7989 160.219 15.7662C160.055 15.7382 159.91 15.7007 159.784 15.654V14.4554C159.897 14.5021 160.015 14.5418 160.142 14.5746C160.273 14.6026 160.412 14.6166 160.562 14.6166C160.829 14.6166 161.041 14.5137 161.201 14.3082C161.359 14.0978 161.488 13.8198 161.586 13.474C161.689 13.1236 161.78 12.738 161.858 12.3174C161.915 12.0183 161.981 11.6328 162.056 11.1608C162.135 10.6888 162.219 10.149 162.307 9.54154C162.396 8.93403 162.488 8.27979 162.581 7.57881C162.679 6.87784 162.775 6.15584 162.869 5.4128H168.617V15.661ZM197.865 15.661L196.729 12.6118H192.713L191.591 15.661H190.098L194.009 5.37074H195.482L199.372 15.661H197.865ZM196.33 11.3641L195.251 8.34288C195.218 8.24006 195.167 8.08585 195.097 7.88024C195.031 7.67461 194.963 7.46198 194.893 7.24235C194.828 7.0227 194.774 6.84045 194.732 6.69558C194.685 6.88718 194.632 7.09046 194.571 7.30544C194.509 7.51573 194.449 7.71433 194.388 7.90126C194.332 8.08352 194.286 8.23072 194.248 8.34288L193.154 11.3641H196.33Z" fill="#464646"/>
<path d="M17.2368 25.3777C21.9614 25.3777 25.4964 26.4059 27.8415 28.4621C30.2038 30.5182 31.385 33.4411 31.385 37.2305C31.385 38.9299 31.1386 40.5612 30.6457 42.1246C30.1699 43.6881 29.3796 45.0815 28.275 46.305C27.1872 47.5286 25.7343 48.4972 23.9158 49.2108C22.1143 49.9246 19.8881 50.2814 17.2368 50.2814H14.4073V62.6441H4.33789V25.3777H17.2368ZM17.0075 33.5091H14.4073V42.0737H16.3956C17.2624 42.0737 18.0697 41.9292 18.8174 41.6403C19.5652 41.3345 20.1599 40.8502 20.6019 40.1875C21.0606 39.5076 21.2901 38.607 21.2901 37.4855C21.2901 36.3129 20.9417 35.3614 20.2449 34.6307C19.5482 33.8829 18.4691 33.5091 17.0075 33.5091ZM73.2419 43.9599C73.2419 46.8318 72.8936 49.4487 72.1967 51.8108C71.517 54.1559 70.4464 56.1781 68.9848 57.8775C67.5232 59.5767 65.6453 60.8852 63.351 61.8029C61.0568 62.7036 58.3121 63.1538 55.1171 63.1538C51.9901 63.1538 49.2794 62.7036 46.9851 61.8029C44.7078 60.8852 42.8299 59.5852 41.3513 57.9029C39.8728 56.2036 38.7767 54.1729 38.0629 51.8108C37.3491 49.4487 36.9922 46.8148 36.9922 43.9089C36.9922 40.0345 37.6296 36.6699 38.9041 33.815C40.1957 30.943 42.1842 28.7254 44.8692 27.1621C47.5544 25.5817 50.9873 24.7915 55.1681 24.7915C59.4168 24.7915 62.8667 25.5817 65.5179 27.1621C68.186 28.7424 70.1404 30.9686 71.381 33.8404C72.6217 36.7123 73.2419 40.0854 73.2419 43.9599ZM47.597 43.9599C47.597 46.203 47.8519 48.1318 48.3617 49.7462C48.8715 51.3605 49.6787 52.601 50.7835 53.4677C51.888 54.3343 53.3326 54.7676 55.1171 54.7676C56.9696 54.7676 58.4396 54.3343 59.5272 53.4677C60.6319 52.601 61.4221 51.3605 61.898 49.7462C62.3908 48.1318 62.6372 46.203 62.6372 43.9599C62.6372 40.5953 62.0764 37.9358 60.9548 35.9816C59.8332 34.0273 57.9042 33.0502 55.1681 33.0502C53.3496 33.0502 51.8796 33.4921 50.758 34.3757C49.6533 35.2593 48.846 36.5169 48.3362 38.1483C47.8434 39.7796 47.597 41.7168 47.597 43.9599ZM97.6114 33.1012C96.4218 33.1012 95.3596 33.3561 94.4249 33.8659C93.4902 34.3587 92.6914 35.0809 92.0287 36.0326C91.3659 36.9841 90.8559 38.1483 90.4991 39.5247C90.1592 40.8841 89.9893 42.4305 89.9893 44.1638C89.9893 46.5089 90.2866 48.4801 90.8815 50.0775C91.4763 51.6749 92.377 52.8814 93.5837 53.697C94.8073 54.5127 96.3368 54.9206 98.1722 54.9206C99.8376 54.9206 101.435 54.6911 102.965 54.2324C104.511 53.7735 106.066 53.2212 107.63 52.5756V61.0892C105.981 61.8199 104.29 62.3466 102.557 62.6695C100.84 62.9924 99.0134 63.1538 97.0761 63.1538C93.0313 63.1538 89.7173 62.3551 87.1342 60.7578C84.5679 59.1434 82.673 56.9089 81.4494 54.054C80.2428 51.1991 79.6395 47.8854 79.6395 44.1129C79.6395 41.292 80.0304 38.7091 80.8121 36.364C81.6109 34.0188 82.775 31.9881 84.3045 30.2718C85.8341 28.5385 87.7205 27.2046 89.9637 26.2699C92.224 25.3182 94.8073 24.8425 97.7133 24.8425C99.5147 24.8425 101.41 25.0549 103.398 25.4797C105.404 25.8875 107.358 26.5504 109.261 27.468L106.177 35.3953C104.817 34.7496 103.441 34.2057 102.047 33.764C100.653 33.3222 99.1749 33.1012 97.6114 33.1012Z" fill="#464646"/>
<path d="M120.078 59.3814C123.733 56.2492 142.919 37.195 151.403 28.7119M151.403 28.7119V61.9916M151.403 28.7119H117.468" stroke="#F9A11E" stroke-width="8"/>
<path d="M189.35 62.6441L187.514 55.6598H175.406L173.519 62.6441H162.456L174.615 25.2249H188.05L200.363 62.6441H189.35ZM185.424 47.4011L183.818 41.2835C183.648 40.6208 183.402 39.6776 183.079 38.4541C182.756 37.2136 182.433 35.9392 182.11 34.6307C181.804 33.3052 181.567 32.2176 181.396 31.368C181.243 32.2176 181.022 33.2712 180.734 34.5287C180.461 35.7693 180.173 37.0013 179.867 38.2248C179.578 39.4483 179.323 40.4678 179.103 41.2835L177.496 47.4011H185.424Z" fill="#464646"/>
</svg>
